<svg version="1" xmlns="http://www.w3.org/2000/svg" width="600" height="600" viewBox="0 0 450.000000 450.000000"><path d="M196.9 2.1C147.1 9 103.8 29.8 68.6 64 31.5 100 9.1 145.2 2 198.2c-2.5 19-2.5 34.6 0 53.6 7.1 53 29.5 98.2 66.6 134.2 35.7 34.6 78.7 55.2 129.6 62 19 2.5 34.6 2.5 53.6 0 50.9-6.8 93.9-27.4 129.6-62 30.1-29.2 51-65.3 61.2-105.8 4.3-16.9 7.4-40.1 7.4-55.2 0-15.1-3.1-38.3-7.4-55.2-16-63.3-58.7-116.4-117.1-145.6-40.1-20-86.3-27.9-128.6-22.1zm48.6 74.4c49.6 7.1 91.2 36.9 113.4 81.2 37.2 74.1 7.4 164.1-66.6 201.2-74.1 37.2-164.1 7.4-201.2-66.6-37.2-74.1-7.4-164.1 66.6-201.2C185 77.4 216 72.2 245.5 76.5z"/><path d="M215 91.1c-60.9 4-112 50.5-122.5 111.4-.9 5.1-1.6 14.9-1.6 22.5s.7 17.4 1.6 22.5c9.6 56.2 53.8 100.4 110 110 11.6 2 33.4 2 45 0 56.2-9.6 100.4-53.8 110-110 .9-5.1 1.6-14.9 1.6-22.5 0-22.2-4.6-41.9-14.2-60.7-24.8-48.6-74.8-76.8-129.9-73.2zm61 92.8c1.6 3.1 1.3 12.7-.6 14.5-1.4 1.4-7.3 1.6-50.4 1.6s-49-.2-50.4-1.6c-1.9-1.9-2.2-13.4-.4-15.2.9-.9 13.6-1.2 51-1.2 48.1 0 49.8.1 50.8 1.9zm-.6 33.7c1.9 1.8 2.2 11.4.6 14.5-1 1.8-2.7 1.9-50.8 1.9-37.4 0-50.1-.3-51-1.2-1.8-1.8-1.5-13.3.4-15.2 1.4-1.4 7.3-1.6 50.4-1.6s49 .2 50.4 1.6zm-.6 34c1.9 1.3 2.2 2.4 2.2 7.8 0 3.5-.5 6.7-1.2 7.4-1.7 1.7-99.9 1.7-101.6 0-.7-.7-1.2-3.9-1.2-7.4 0-10-3.4-9.4 52-9.4 41.4 0 47.8.2 49.8 1.6z"/></svg>